:FULLY-SPECIFIED
:FORCE-ALL-JOINTS-BE-3DOF
:DEGREES
1529
root -4.66361 15.3303 20.9472 -170.563 -24.0221 -177.13
lfemur -44.5071 19.0706 -10.9865
ltibia 88.8529 -0 0
lfoot -12.7995 24.4634 -0.0413335
ltoes -12.0503 0 0
rfemur -36.7552 -3.99282 17.5379
rtibia 64.6519 -0 0
rfoot -23.5665 -16.3518 -1.10241
rtoes -35.9165 0 0
lowerback 16.6877 1.13685 5.95241
upperback -1.27729 2.8928 4.19737
thorax -10.8361 1.04526 0.47184
lowerneck -3.90428 8.42694 4.37698
upperneck 0.535823 11.133 -10.3903
head 1.60182 5.4169 -3.62717
lclavicle -4.71589e-14 -1.67451e-14 6.62798e-30
lhumerus -0.602222 -31.6358 78.0241
lradius 94.9516 -0 0
lwrist -9.78713 0 0
lhand -27.9095 58.9786 0.148837
lfingers 7.12502 -0 0
lthumb -1.59919 -19.128 -1.86109
rclavicle -4.71589e-14 -1.67451e-14 6.62798e-30
rhumerus -62.4892 35.054 -93.7468
rradius 106.912 -0 0
rwrist -59.1098 0 0
rhand 8.26438 -30.6141 -0.0881766
rfingers 7.12502 -0 0
rthumb 34.7393 -60.9025 -1.44423
1530
root -4.5969 15.341 20.8841 -170.626 -26.3009 -176.947
lfemur -44.2772 19.4617 -10.0831
ltibia 86.4912 -0 0
lfoot -12.9209 25.2993 -0.0582223
ltoes -10.3548 0 0
rfemur -35.2511 -5.01072 17.2058
rtibia 64.2145 -0 0
rfoot -22.7692 -18.301 -1.16848
rtoes -36.1692 0 0
lowerback 16.2978 1.01681 5.71297
upperback -1.26658 2.66396 4.17752
thorax -10.6118 0.962107 0.639
lowerneck -3.98491 7.88938 4.14026
upperneck 0.263509 10.3921 -9.8784
head 1.43062 5.06386 -3.45172
lclavicle -5.13128e-14 -1.02588e-14 6.86298e-30
lhumerus -2.2466 -24.5654 77.9992
lradius 88.9098 -0 0
lwrist -13.3895 0 0
lhand -28.3473 57.4406 0.166858
lfingers 7.12502 -0 0
lthumb -2.18153 -3.91307 -1.92923
rclavicle -5.13128e-14 -1.02588e-14 6.86298e-30
rhumerus -64.1053 33.0867 -94.3563
rradius 106.072 -0 0
rwrist -60.5727 0 0
rhand 6.36466 -31.2711 -0.145429
rfingers 7.12502 -0 0
rthumb 33.2807 -62.7138 -1.88038
1531
root -4.52979 15.3514 20.7698 -170.742 -28.198 -176.701
lfemur -43.8325 19.7644 -9.17234
ltibia 83.9118 -0 0
lfoot -13.1121 26.1255 -0.0709574
ltoes -8.69693 0 0
rfemur -33.7644 -6.0197 16.7628
rtibia 63.6472 -0 0
rfoot -21.7477 -20.1617 -1.15517
rtoes -36.2218 0 0
lowerback 15.8904 0.887986 5.38503
upperback -1.25653 2.40734 4.14632
thorax -10.3759 0.870599 0.851249
lowerneck -4.07655 7.25952 3.82726
upperneck 0.0574579 9.53993 -9.26209
head 1.27858 4.65174 -3.23821
lclavicle -5.52319e-14 -3.60502e-15 6.57795e-30
lhumerus -3.93939 -17.4941 77.8806
lradius 82.7726 -0 0
lwrist -16.8505 0 0
lhand -28.794 55.8317 0.17183
lfingers 7.12502 -0 0
lthumb -2.74404 10.8594 -1.84526
rclavicle -5.52319e-14 -3.60502e-15 6.57795e-30
rhumerus -65.213 31.1497 -94.7165
rradius 105.233 -0 0
rwrist -61.8351 0 0
rhand 4.45402 -31.9148 -0.214391
rfingers 7.12502 -0 0
rthumb 31.7553 -64.3308 -2.28331
1532
root -4.47301 15.3617 20.6226 -170.902 -29.8909 -176.44
lfemur -43.2003 19.959 -8.28524
ltibia 81.205 -0 0
lfoot -13.3578 26.9014 -0.0773572
ltoes -7.16365 0 0
rfemur -32.3577 -6.98118 16.2346
rtibia 62.994 -0 0
rfoot -20.5736 -21.8598 -1.06353
rtoes -36.0915 0 0
lowerback 15.4856 0.752883 4.98385
upperback -1.24719 2.13175 4.10717
thorax -10.1396 0.773396 1.10176
lowerneck -4.17211 6.56338 3.45327
upperneck -0.0876639 8.61039 -8.57192
head 1.14781 4.19778 -2.99614
lclavicle -5.88086e-14 2.97348e-15 5.82496e-30
lhumerus -5.61698 -10.6829 77.6674
lradius 76.7272 -0 0
lwrist -20.0841 0 0
lhand -29.2299 54.2018 0.162892
lfingers 7.12502 -0 0
lthumb -3.2358 24.9597 -1.62882
rclavicle -5.88086e-14 2.97348e-15 5.82496e-30
rhumerus -65.8377 29.2945 -94.8601
rradius 104.446 -0 0
rwrist -62.8876 0 0
rhand 2.70073 -32.5137 -0.283945
rfingers 7.12502 -0 0
rthumb 30.2768 -65.6042 -2.59011
1533
root -4.43731 15.3718 20.4612 -171.096 -31.5573 -176.217
lfemur -42.4095 20.0271 -7.45497
ltibia 78.4611 -0 0
lfoot -13.6426 27.586 -0.0761116
ltoes -5.84194 0 0
rfemur -31.0962 -7.85934 15.6512
rtibia 62.2984 -0 0
rfoot -19.3174 -23.321 -0.90301
rtoes -35.7954 0 0
lowerback 15.1033 0.614471 4.52457
upperback -1.23863 1.84605 4.06345
thorax -9.91393 0.673301 1.38379
lowerneck -4.26497 5.82715 3.03336
upperneck -0.175807 7.63705 -7.83848
head 1.04065 3.71913 -2.73514
lclavicle -6.19351e-14 9.23393e-15 4.71092e-30
lhumerus -7.21737 -4.39204 77.3877
lradius 70.9608 -0 0
lwrist -23.0043 0 0
lhand -29.6353 52.6011 0.141054
lfingers 7.12502 -0 0
lthumb -3.6184 38.1596 -1.31645
rclavicle -6.19351e-14 9.23393e-15 4.71092e-30
rhumerus -65.9998 27.5682 -94.8156
rradius 103.759 -0 0
rwrist -63.7207 0 0
rhand 1.27279 -33.0371 -0.337782
rfingers 7.12502 -0 0
rthumb 28.9563 -66.3889 -2.72536
